<mxfile host="Electron" modified="2023-11-09T19:52:37.086Z" agent="Mozilla/5.0 (Windows NT 10.0; Win64; x64) AppleWebKit/537.36 (KHTML, like Gecko) draw.io/22.0.3 Chrome/114.0.5735.289 Electron/25.8.4 Safari/537.36" etag="VN6Pn52Uno74K8rAJq1N" version="22.0.3" type="device">
  <diagram id="C5RBs43oDa-KdzZeNtuy" name="Page-1">
    <mxGraphModel dx="944" dy="2995" grid="1" gridSize="10" guides="1" tooltips="1" connect="1" arrows="1" fold="1" page="1" pageScale="1" pageWidth="827" pageHeight="1169" math="0" shadow="0">
      <root>
        <mxCell id="WIyWlLk6GJQsqaUBKTNV-0" />
        <mxCell id="WIyWlLk6GJQsqaUBKTNV-1" parent="WIyWlLk6GJQsqaUBKTNV-0" />
        <mxCell id="BM7-LysXDaabkNMuNMAa-3" style="edgeStyle=orthogonalEdgeStyle;rounded=0;orthogonalLoop=1;jettySize=auto;html=1;exitX=0.5;exitY=1;exitDx=0;exitDy=0;entryX=0.5;entryY=0;entryDx=0;entryDy=0;" edge="1" parent="WIyWlLk6GJQsqaUBKTNV-1" source="WIyWlLk6GJQsqaUBKTNV-3" target="BM7-LysXDaabkNMuNMAa-0">
          <mxGeometry relative="1" as="geometry" />
        </mxCell>
        <mxCell id="WIyWlLk6GJQsqaUBKTNV-3" value="Start" style="rounded=1;whiteSpace=wrap;html=1;fontSize=12;glass=0;strokeWidth=1;shadow=0;" parent="WIyWlLk6GJQsqaUBKTNV-1" vertex="1">
          <mxGeometry x="340" y="-1810" width="120" height="40" as="geometry" />
        </mxCell>
        <mxCell id="WIyWlLk6GJQsqaUBKTNV-11" value="End" style="rounded=1;whiteSpace=wrap;html=1;fontSize=12;glass=0;strokeWidth=1;shadow=0;" parent="WIyWlLk6GJQsqaUBKTNV-1" vertex="1">
          <mxGeometry x="650" y="500" width="120" height="40" as="geometry" />
        </mxCell>
        <mxCell id="BM7-LysXDaabkNMuNMAa-22" style="edgeStyle=orthogonalEdgeStyle;rounded=0;orthogonalLoop=1;jettySize=auto;html=1;exitX=0.5;exitY=1;exitDx=0;exitDy=0;entryX=0.5;entryY=0;entryDx=0;entryDy=0;" edge="1" parent="WIyWlLk6GJQsqaUBKTNV-1" source="BM7-LysXDaabkNMuNMAa-0" target="BM7-LysXDaabkNMuNMAa-21">
          <mxGeometry relative="1" as="geometry" />
        </mxCell>
        <mxCell id="BM7-LysXDaabkNMuNMAa-0" value="Input&amp;nbsp;&lt;br&gt;weather" style="shape=parallelogram;perimeter=parallelogramPerimeter;whiteSpace=wrap;html=1;fixedSize=1;" vertex="1" parent="WIyWlLk6GJQsqaUBKTNV-1">
          <mxGeometry x="340" y="-1730" width="120" height="60" as="geometry" />
        </mxCell>
        <mxCell id="BM7-LysXDaabkNMuNMAa-16" style="edgeStyle=orthogonalEdgeStyle;rounded=0;orthogonalLoop=1;jettySize=auto;html=1;exitX=0;exitY=0.5;exitDx=0;exitDy=0;entryX=0.5;entryY=0;entryDx=0;entryDy=0;" edge="1" parent="WIyWlLk6GJQsqaUBKTNV-1">
          <mxGeometry relative="1" as="geometry">
            <mxPoint x="326.5" y="-1476" as="sourcePoint" />
            <mxPoint x="262" y="-1406" as="targetPoint" />
          </mxGeometry>
        </mxCell>
        <mxCell id="BM7-LysXDaabkNMuNMAa-17" style="edgeStyle=orthogonalEdgeStyle;rounded=0;orthogonalLoop=1;jettySize=auto;html=1;exitX=1;exitY=0.5;exitDx=0;exitDy=0;entryX=0.5;entryY=0;entryDx=0;entryDy=0;" edge="1" parent="WIyWlLk6GJQsqaUBKTNV-1" target="BM7-LysXDaabkNMuNMAa-10">
          <mxGeometry relative="1" as="geometry">
            <mxPoint x="473.5" y="-1476" as="sourcePoint" />
            <Array as="points">
              <mxPoint x="537" y="-1476" />
            </Array>
          </mxGeometry>
        </mxCell>
        <mxCell id="BM7-LysXDaabkNMuNMAa-4" value="weather=sunny&lt;br&gt;" style="rhombus;whiteSpace=wrap;html=1;" vertex="1" parent="WIyWlLk6GJQsqaUBKTNV-1">
          <mxGeometry x="326.5" y="-1526" width="147" height="100" as="geometry" />
        </mxCell>
        <mxCell id="BM7-LysXDaabkNMuNMAa-36" style="edgeStyle=orthogonalEdgeStyle;rounded=0;orthogonalLoop=1;jettySize=auto;html=1;exitX=1;exitY=0.5;exitDx=0;exitDy=0;" edge="1" parent="WIyWlLk6GJQsqaUBKTNV-1" source="BM7-LysXDaabkNMuNMAa-9">
          <mxGeometry relative="1" as="geometry">
            <mxPoint x="380" y="-1330" as="targetPoint" />
          </mxGeometry>
        </mxCell>
        <mxCell id="BM7-LysXDaabkNMuNMAa-9" value="Output&lt;br&gt;&quot;You don&#39;t need a coat&quot;" style="shape=parallelogram;perimeter=parallelogramPerimeter;whiteSpace=wrap;html=1;fixedSize=1;" vertex="1" parent="WIyWlLk6GJQsqaUBKTNV-1">
          <mxGeometry x="172" y="-1406" width="180" height="60" as="geometry" />
        </mxCell>
        <mxCell id="BM7-LysXDaabkNMuNMAa-35" style="edgeStyle=orthogonalEdgeStyle;rounded=0;orthogonalLoop=1;jettySize=auto;html=1;exitX=0;exitY=0.5;exitDx=0;exitDy=0;" edge="1" parent="WIyWlLk6GJQsqaUBKTNV-1" source="BM7-LysXDaabkNMuNMAa-10">
          <mxGeometry relative="1" as="geometry">
            <mxPoint x="420" y="-1330" as="targetPoint" />
          </mxGeometry>
        </mxCell>
        <mxCell id="BM7-LysXDaabkNMuNMAa-10" value="Output&lt;br&gt;&quot;You should wear a coat&quot;" style="shape=parallelogram;perimeter=parallelogramPerimeter;whiteSpace=wrap;html=1;fixedSize=1;" vertex="1" parent="WIyWlLk6GJQsqaUBKTNV-1">
          <mxGeometry x="452" y="-1406" width="170" height="60" as="geometry" />
        </mxCell>
        <mxCell id="BM7-LysXDaabkNMuNMAa-12" value="Yes" style="text;html=1;align=center;verticalAlign=middle;resizable=0;points=[];autosize=1;strokeColor=none;fillColor=none;" vertex="1" parent="WIyWlLk6GJQsqaUBKTNV-1">
          <mxGeometry x="282" y="-1508" width="40" height="30" as="geometry" />
        </mxCell>
        <mxCell id="BM7-LysXDaabkNMuNMAa-18" value="No" style="text;html=1;align=center;verticalAlign=middle;resizable=0;points=[];autosize=1;strokeColor=none;fillColor=none;" vertex="1" parent="WIyWlLk6GJQsqaUBKTNV-1">
          <mxGeometry x="482" y="-1508" width="40" height="30" as="geometry" />
        </mxCell>
        <mxCell id="BM7-LysXDaabkNMuNMAa-32" style="edgeStyle=orthogonalEdgeStyle;rounded=0;orthogonalLoop=1;jettySize=auto;html=1;exitX=1;exitY=0.5;exitDx=0;exitDy=0;entryX=0.5;entryY=0;entryDx=0;entryDy=0;" edge="1" parent="WIyWlLk6GJQsqaUBKTNV-1" target="BM7-LysXDaabkNMuNMAa-43">
          <mxGeometry relative="1" as="geometry">
            <mxPoint x="720" y="-1090" as="targetPoint" />
            <mxPoint x="473" y="-1166" as="sourcePoint" />
          </mxGeometry>
        </mxCell>
        <mxCell id="BM7-LysXDaabkNMuNMAa-46" style="edgeStyle=orthogonalEdgeStyle;rounded=0;orthogonalLoop=1;jettySize=auto;html=1;exitX=0;exitY=0.5;exitDx=0;exitDy=0;" edge="1" parent="WIyWlLk6GJQsqaUBKTNV-1" source="BM7-LysXDaabkNMuNMAa-19" target="BM7-LysXDaabkNMuNMAa-40">
          <mxGeometry relative="1" as="geometry" />
        </mxCell>
        <mxCell id="BM7-LysXDaabkNMuNMAa-47" style="edgeStyle=orthogonalEdgeStyle;rounded=0;orthogonalLoop=1;jettySize=auto;html=1;exitX=0;exitY=1;exitDx=0;exitDy=0;entryX=0.5;entryY=0;entryDx=0;entryDy=0;" edge="1" parent="WIyWlLk6GJQsqaUBKTNV-1" source="BM7-LysXDaabkNMuNMAa-19" target="BM7-LysXDaabkNMuNMAa-41">
          <mxGeometry relative="1" as="geometry" />
        </mxCell>
        <mxCell id="BM7-LysXDaabkNMuNMAa-48" style="edgeStyle=orthogonalEdgeStyle;rounded=0;orthogonalLoop=1;jettySize=auto;html=1;exitX=1;exitY=1;exitDx=0;exitDy=0;entryX=0.5;entryY=0;entryDx=0;entryDy=0;" edge="1" parent="WIyWlLk6GJQsqaUBKTNV-1" source="BM7-LysXDaabkNMuNMAa-19" target="BM7-LysXDaabkNMuNMAa-42">
          <mxGeometry relative="1" as="geometry" />
        </mxCell>
        <mxCell id="BM7-LysXDaabkNMuNMAa-49" style="edgeStyle=orthogonalEdgeStyle;rounded=0;orthogonalLoop=1;jettySize=auto;html=1;exitX=0.5;exitY=1;exitDx=0;exitDy=0;" edge="1" parent="WIyWlLk6GJQsqaUBKTNV-1" source="BM7-LysXDaabkNMuNMAa-19">
          <mxGeometry relative="1" as="geometry">
            <mxPoint x="400" y="-1080" as="targetPoint" />
          </mxGeometry>
        </mxCell>
        <mxCell id="BM7-LysXDaabkNMuNMAa-19" value="weather=" style="rhombus;whiteSpace=wrap;html=1;" vertex="1" parent="WIyWlLk6GJQsqaUBKTNV-1">
          <mxGeometry x="326" y="-1216" width="147" height="100" as="geometry" />
        </mxCell>
        <mxCell id="BM7-LysXDaabkNMuNMAa-23" style="edgeStyle=orthogonalEdgeStyle;rounded=0;orthogonalLoop=1;jettySize=auto;html=1;exitX=0.5;exitY=1;exitDx=0;exitDy=0;entryX=0.5;entryY=0;entryDx=0;entryDy=0;" edge="1" parent="WIyWlLk6GJQsqaUBKTNV-1" source="BM7-LysXDaabkNMuNMAa-21" target="BM7-LysXDaabkNMuNMAa-4">
          <mxGeometry relative="1" as="geometry" />
        </mxCell>
        <mxCell id="BM7-LysXDaabkNMuNMAa-21" value="Output&lt;br&gt;&quot;Should I wear a coat?&quot;" style="shape=parallelogram;perimeter=parallelogramPerimeter;whiteSpace=wrap;html=1;fixedSize=1;" vertex="1" parent="WIyWlLk6GJQsqaUBKTNV-1">
          <mxGeometry x="324" y="-1630" width="152" height="60" as="geometry" />
        </mxCell>
        <mxCell id="BM7-LysXDaabkNMuNMAa-26" style="edgeStyle=orthogonalEdgeStyle;rounded=0;orthogonalLoop=1;jettySize=auto;html=1;exitX=0.5;exitY=1;exitDx=0;exitDy=0;entryX=0.5;entryY=0;entryDx=0;entryDy=0;" edge="1" parent="WIyWlLk6GJQsqaUBKTNV-1" source="BM7-LysXDaabkNMuNMAa-24" target="BM7-LysXDaabkNMuNMAa-19">
          <mxGeometry relative="1" as="geometry" />
        </mxCell>
        <mxCell id="BM7-LysXDaabkNMuNMAa-24" value="Output&lt;br&gt;&quot;Which type of activity?&quot;" style="shape=parallelogram;perimeter=parallelogramPerimeter;whiteSpace=wrap;html=1;fixedSize=1;" vertex="1" parent="WIyWlLk6GJQsqaUBKTNV-1">
          <mxGeometry x="310" y="-1330" width="180" height="60" as="geometry" />
        </mxCell>
        <mxCell id="BM7-LysXDaabkNMuNMAa-37" value="Sunny" style="text;html=1;align=center;verticalAlign=middle;resizable=0;points=[];autosize=1;strokeColor=none;fillColor=none;" vertex="1" parent="WIyWlLk6GJQsqaUBKTNV-1">
          <mxGeometry x="150" y="-1192" width="60" height="30" as="geometry" />
        </mxCell>
        <mxCell id="BM7-LysXDaabkNMuNMAa-59" style="edgeStyle=orthogonalEdgeStyle;rounded=0;orthogonalLoop=1;jettySize=auto;html=1;exitX=0.5;exitY=1;exitDx=0;exitDy=0;entryX=0.25;entryY=0;entryDx=0;entryDy=0;" edge="1" parent="WIyWlLk6GJQsqaUBKTNV-1" source="BM7-LysXDaabkNMuNMAa-40" target="BM7-LysXDaabkNMuNMAa-56">
          <mxGeometry relative="1" as="geometry" />
        </mxCell>
        <mxCell id="BM7-LysXDaabkNMuNMAa-40" value="Output&lt;br&gt;&quot;Play footbal&quot;" style="shape=parallelogram;perimeter=parallelogramPerimeter;whiteSpace=wrap;html=1;fixedSize=1;" vertex="1" parent="WIyWlLk6GJQsqaUBKTNV-1">
          <mxGeometry x="20" y="-1080" width="120" height="60" as="geometry" />
        </mxCell>
        <mxCell id="BM7-LysXDaabkNMuNMAa-58" value="" style="edgeStyle=orthogonalEdgeStyle;rounded=0;orthogonalLoop=1;jettySize=auto;html=1;" edge="1" parent="WIyWlLk6GJQsqaUBKTNV-1" source="BM7-LysXDaabkNMuNMAa-41" target="BM7-LysXDaabkNMuNMAa-56">
          <mxGeometry relative="1" as="geometry">
            <Array as="points">
              <mxPoint x="237" y="-970" />
              <mxPoint x="390" y="-970" />
            </Array>
          </mxGeometry>
        </mxCell>
        <mxCell id="BM7-LysXDaabkNMuNMAa-41" value="Output&lt;br&gt;&quot;Take an umbrella&quot;" style="shape=parallelogram;perimeter=parallelogramPerimeter;whiteSpace=wrap;html=1;fixedSize=1;" vertex="1" parent="WIyWlLk6GJQsqaUBKTNV-1">
          <mxGeometry x="172" y="-1080" width="130" height="60" as="geometry" />
        </mxCell>
        <mxCell id="BM7-LysXDaabkNMuNMAa-64" style="edgeStyle=orthogonalEdgeStyle;rounded=0;orthogonalLoop=1;jettySize=auto;html=1;exitX=0.5;exitY=1;exitDx=0;exitDy=0;entryX=0.75;entryY=0;entryDx=0;entryDy=0;" edge="1" parent="WIyWlLk6GJQsqaUBKTNV-1" source="BM7-LysXDaabkNMuNMAa-42" target="BM7-LysXDaabkNMuNMAa-56">
          <mxGeometry relative="1" as="geometry">
            <mxPoint x="440" y="-920" as="targetPoint" />
            <Array as="points">
              <mxPoint x="560" y="-970" />
              <mxPoint x="435" y="-970" />
            </Array>
          </mxGeometry>
        </mxCell>
        <mxCell id="BM7-LysXDaabkNMuNMAa-42" value="Output&lt;br&gt;&quot;Play snowballs&quot;" style="shape=parallelogram;perimeter=parallelogramPerimeter;whiteSpace=wrap;html=1;fixedSize=1;" vertex="1" parent="WIyWlLk6GJQsqaUBKTNV-1">
          <mxGeometry x="500" y="-1080" width="120" height="60" as="geometry" />
        </mxCell>
        <mxCell id="BM7-LysXDaabkNMuNMAa-63" style="edgeStyle=orthogonalEdgeStyle;rounded=0;orthogonalLoop=1;jettySize=auto;html=1;exitX=0.5;exitY=1;exitDx=0;exitDy=0;entryX=1;entryY=0;entryDx=0;entryDy=0;" edge="1" parent="WIyWlLk6GJQsqaUBKTNV-1" source="BM7-LysXDaabkNMuNMAa-43" target="BM7-LysXDaabkNMuNMAa-56">
          <mxGeometry relative="1" as="geometry" />
        </mxCell>
        <mxCell id="BM7-LysXDaabkNMuNMAa-43" value="Output&lt;br&gt;&quot;Stay at home&quot;" style="shape=parallelogram;perimeter=parallelogramPerimeter;whiteSpace=wrap;html=1;fixedSize=1;" vertex="1" parent="WIyWlLk6GJQsqaUBKTNV-1">
          <mxGeometry x="660" y="-1080" width="120" height="60" as="geometry" />
        </mxCell>
        <mxCell id="BM7-LysXDaabkNMuNMAa-60" style="edgeStyle=orthogonalEdgeStyle;rounded=0;orthogonalLoop=1;jettySize=auto;html=1;exitX=0.5;exitY=1;exitDx=0;exitDy=0;entryX=0.5;entryY=0;entryDx=0;entryDy=0;" edge="1" parent="WIyWlLk6GJQsqaUBKTNV-1" source="BM7-LysXDaabkNMuNMAa-50" target="BM7-LysXDaabkNMuNMAa-56">
          <mxGeometry relative="1" as="geometry" />
        </mxCell>
        <mxCell id="BM7-LysXDaabkNMuNMAa-50" value="Output&lt;br&gt;&quot;Go to a cafe&quot;" style="shape=parallelogram;perimeter=parallelogramPerimeter;whiteSpace=wrap;html=1;fixedSize=1;" vertex="1" parent="WIyWlLk6GJQsqaUBKTNV-1">
          <mxGeometry x="340" y="-1080" width="120" height="60" as="geometry" />
        </mxCell>
        <mxCell id="BM7-LysXDaabkNMuNMAa-51" value="Cloudy" style="text;html=1;align=center;verticalAlign=middle;resizable=0;points=[];autosize=1;strokeColor=none;fillColor=none;" vertex="1" parent="WIyWlLk6GJQsqaUBKTNV-1">
          <mxGeometry x="396" y="-1118" width="60" height="30" as="geometry" />
        </mxCell>
        <mxCell id="BM7-LysXDaabkNMuNMAa-52" value="Rainy" style="text;html=1;align=center;verticalAlign=middle;resizable=0;points=[];autosize=1;strokeColor=none;fillColor=none;" vertex="1" parent="WIyWlLk6GJQsqaUBKTNV-1">
          <mxGeometry x="265" y="-1172" width="50" height="30" as="geometry" />
        </mxCell>
        <mxCell id="BM7-LysXDaabkNMuNMAa-53" value="Snowy" style="text;html=1;align=center;verticalAlign=middle;resizable=0;points=[];autosize=1;strokeColor=none;fillColor=none;" vertex="1" parent="WIyWlLk6GJQsqaUBKTNV-1">
          <mxGeometry x="490" y="-1172" width="60" height="30" as="geometry" />
        </mxCell>
        <mxCell id="BM7-LysXDaabkNMuNMAa-55" value="Windy" style="text;html=1;align=center;verticalAlign=middle;resizable=0;points=[];autosize=1;strokeColor=none;fillColor=none;" vertex="1" parent="WIyWlLk6GJQsqaUBKTNV-1">
          <mxGeometry x="590" y="-1192" width="60" height="30" as="geometry" />
        </mxCell>
        <mxCell id="BM7-LysXDaabkNMuNMAa-108" style="edgeStyle=orthogonalEdgeStyle;rounded=0;orthogonalLoop=1;jettySize=auto;html=1;exitX=0.5;exitY=1;exitDx=0;exitDy=0;entryX=0.5;entryY=0;entryDx=0;entryDy=0;" edge="1" parent="WIyWlLk6GJQsqaUBKTNV-1" source="BM7-LysXDaabkNMuNMAa-56" target="BM7-LysXDaabkNMuNMAa-90">
          <mxGeometry relative="1" as="geometry" />
        </mxCell>
        <mxCell id="BM7-LysXDaabkNMuNMAa-56" value="Output&lt;br&gt;&quot;Which footwear?&quot;" style="shape=parallelogram;perimeter=parallelogramPerimeter;whiteSpace=wrap;html=1;fixedSize=1;" vertex="1" parent="WIyWlLk6GJQsqaUBKTNV-1">
          <mxGeometry x="330" y="-900" width="140" height="60" as="geometry" />
        </mxCell>
        <mxCell id="BM7-LysXDaabkNMuNMAa-85" style="edgeStyle=orthogonalEdgeStyle;rounded=0;orthogonalLoop=1;jettySize=auto;html=1;exitX=1;exitY=0.5;exitDx=0;exitDy=0;entryX=0.5;entryY=0;entryDx=0;entryDy=0;" edge="1" parent="WIyWlLk6GJQsqaUBKTNV-1" target="BM7-LysXDaabkNMuNMAa-100">
          <mxGeometry relative="1" as="geometry">
            <mxPoint x="720" y="-659" as="targetPoint" />
            <mxPoint x="473" y="-735" as="sourcePoint" />
          </mxGeometry>
        </mxCell>
        <mxCell id="BM7-LysXDaabkNMuNMAa-87" style="edgeStyle=orthogonalEdgeStyle;rounded=0;orthogonalLoop=1;jettySize=auto;html=1;exitX=0;exitY=1;exitDx=0;exitDy=0;entryX=0.5;entryY=0;entryDx=0;entryDy=0;" edge="1" parent="WIyWlLk6GJQsqaUBKTNV-1" source="BM7-LysXDaabkNMuNMAa-90" target="BM7-LysXDaabkNMuNMAa-96">
          <mxGeometry relative="1" as="geometry" />
        </mxCell>
        <mxCell id="BM7-LysXDaabkNMuNMAa-88" style="edgeStyle=orthogonalEdgeStyle;rounded=0;orthogonalLoop=1;jettySize=auto;html=1;exitX=1;exitY=1;exitDx=0;exitDy=0;entryX=0.5;entryY=0;entryDx=0;entryDy=0;" edge="1" parent="WIyWlLk6GJQsqaUBKTNV-1" source="BM7-LysXDaabkNMuNMAa-90" target="BM7-LysXDaabkNMuNMAa-98">
          <mxGeometry relative="1" as="geometry" />
        </mxCell>
        <mxCell id="BM7-LysXDaabkNMuNMAa-89" style="edgeStyle=orthogonalEdgeStyle;rounded=0;orthogonalLoop=1;jettySize=auto;html=1;exitX=0.5;exitY=1;exitDx=0;exitDy=0;" edge="1" parent="WIyWlLk6GJQsqaUBKTNV-1" source="BM7-LysXDaabkNMuNMAa-90">
          <mxGeometry relative="1" as="geometry">
            <mxPoint x="400" y="-649" as="targetPoint" />
          </mxGeometry>
        </mxCell>
        <mxCell id="BM7-LysXDaabkNMuNMAa-109" style="edgeStyle=orthogonalEdgeStyle;rounded=0;orthogonalLoop=1;jettySize=auto;html=1;exitX=0;exitY=0.5;exitDx=0;exitDy=0;entryX=0.5;entryY=0;entryDx=0;entryDy=0;" edge="1" parent="WIyWlLk6GJQsqaUBKTNV-1" source="BM7-LysXDaabkNMuNMAa-90" target="BM7-LysXDaabkNMuNMAa-94">
          <mxGeometry relative="1" as="geometry" />
        </mxCell>
        <mxCell id="BM7-LysXDaabkNMuNMAa-90" value="weather=" style="rhombus;whiteSpace=wrap;html=1;" vertex="1" parent="WIyWlLk6GJQsqaUBKTNV-1">
          <mxGeometry x="326" y="-785" width="147" height="100" as="geometry" />
        </mxCell>
        <mxCell id="BM7-LysXDaabkNMuNMAa-92" value="Sunny" style="text;html=1;align=center;verticalAlign=middle;resizable=0;points=[];autosize=1;strokeColor=none;fillColor=none;" vertex="1" parent="WIyWlLk6GJQsqaUBKTNV-1">
          <mxGeometry x="150" y="-761" width="60" height="30" as="geometry" />
        </mxCell>
        <mxCell id="BM7-LysXDaabkNMuNMAa-110" style="edgeStyle=orthogonalEdgeStyle;rounded=0;orthogonalLoop=1;jettySize=auto;html=1;exitX=0.5;exitY=1;exitDx=0;exitDy=0;entryX=0.25;entryY=0;entryDx=0;entryDy=0;" edge="1" parent="WIyWlLk6GJQsqaUBKTNV-1" source="BM7-LysXDaabkNMuNMAa-94" target="BM7-LysXDaabkNMuNMAa-107">
          <mxGeometry relative="1" as="geometry" />
        </mxCell>
        <mxCell id="BM7-LysXDaabkNMuNMAa-94" value="Output&lt;br&gt;&quot;Light trainers&quot;" style="shape=parallelogram;perimeter=parallelogramPerimeter;whiteSpace=wrap;html=1;fixedSize=1;" vertex="1" parent="WIyWlLk6GJQsqaUBKTNV-1">
          <mxGeometry x="30" y="-649" width="120" height="60" as="geometry" />
        </mxCell>
        <mxCell id="BM7-LysXDaabkNMuNMAa-95" value="" style="edgeStyle=orthogonalEdgeStyle;rounded=0;orthogonalLoop=1;jettySize=auto;html=1;" edge="1" parent="WIyWlLk6GJQsqaUBKTNV-1" source="BM7-LysXDaabkNMuNMAa-96" target="BM7-LysXDaabkNMuNMAa-107">
          <mxGeometry relative="1" as="geometry">
            <Array as="points">
              <mxPoint x="237" y="-539" />
              <mxPoint x="390" y="-539" />
            </Array>
          </mxGeometry>
        </mxCell>
        <mxCell id="BM7-LysXDaabkNMuNMAa-96" value="Output&lt;br&gt;&quot;Rain shoes&quot;" style="shape=parallelogram;perimeter=parallelogramPerimeter;whiteSpace=wrap;html=1;fixedSize=1;" vertex="1" parent="WIyWlLk6GJQsqaUBKTNV-1">
          <mxGeometry x="172" y="-649" width="130" height="60" as="geometry" />
        </mxCell>
        <mxCell id="BM7-LysXDaabkNMuNMAa-97" style="edgeStyle=orthogonalEdgeStyle;rounded=0;orthogonalLoop=1;jettySize=auto;html=1;exitX=0.5;exitY=1;exitDx=0;exitDy=0;entryX=0.75;entryY=0;entryDx=0;entryDy=0;" edge="1" parent="WIyWlLk6GJQsqaUBKTNV-1" source="BM7-LysXDaabkNMuNMAa-98" target="BM7-LysXDaabkNMuNMAa-107">
          <mxGeometry relative="1" as="geometry">
            <mxPoint x="440" y="-489" as="targetPoint" />
            <Array as="points">
              <mxPoint x="560" y="-539" />
              <mxPoint x="435" y="-539" />
            </Array>
          </mxGeometry>
        </mxCell>
        <mxCell id="BM7-LysXDaabkNMuNMAa-98" value="Output&lt;br&gt;&quot;Warm boots&quot;" style="shape=parallelogram;perimeter=parallelogramPerimeter;whiteSpace=wrap;html=1;fixedSize=1;" vertex="1" parent="WIyWlLk6GJQsqaUBKTNV-1">
          <mxGeometry x="500" y="-649" width="120" height="60" as="geometry" />
        </mxCell>
        <mxCell id="BM7-LysXDaabkNMuNMAa-99" style="edgeStyle=orthogonalEdgeStyle;rounded=0;orthogonalLoop=1;jettySize=auto;html=1;exitX=0.5;exitY=1;exitDx=0;exitDy=0;entryX=1;entryY=0;entryDx=0;entryDy=0;" edge="1" parent="WIyWlLk6GJQsqaUBKTNV-1" source="BM7-LysXDaabkNMuNMAa-100" target="BM7-LysXDaabkNMuNMAa-107">
          <mxGeometry relative="1" as="geometry" />
        </mxCell>
        <mxCell id="BM7-LysXDaabkNMuNMAa-100" value="Output&lt;br&gt;&quot;Trainers&quot;" style="shape=parallelogram;perimeter=parallelogramPerimeter;whiteSpace=wrap;html=1;fixedSize=1;" vertex="1" parent="WIyWlLk6GJQsqaUBKTNV-1">
          <mxGeometry x="660" y="-649" width="120" height="60" as="geometry" />
        </mxCell>
        <mxCell id="BM7-LysXDaabkNMuNMAa-101" style="edgeStyle=orthogonalEdgeStyle;rounded=0;orthogonalLoop=1;jettySize=auto;html=1;exitX=0.5;exitY=1;exitDx=0;exitDy=0;entryX=0.5;entryY=0;entryDx=0;entryDy=0;" edge="1" parent="WIyWlLk6GJQsqaUBKTNV-1" source="BM7-LysXDaabkNMuNMAa-102" target="BM7-LysXDaabkNMuNMAa-107">
          <mxGeometry relative="1" as="geometry" />
        </mxCell>
        <mxCell id="BM7-LysXDaabkNMuNMAa-102" value="Output&lt;br&gt;&quot;Trainers&quot;" style="shape=parallelogram;perimeter=parallelogramPerimeter;whiteSpace=wrap;html=1;fixedSize=1;" vertex="1" parent="WIyWlLk6GJQsqaUBKTNV-1">
          <mxGeometry x="340" y="-649" width="120" height="60" as="geometry" />
        </mxCell>
        <mxCell id="BM7-LysXDaabkNMuNMAa-103" value="Cloudy" style="text;html=1;align=center;verticalAlign=middle;resizable=0;points=[];autosize=1;strokeColor=none;fillColor=none;" vertex="1" parent="WIyWlLk6GJQsqaUBKTNV-1">
          <mxGeometry x="396" y="-687" width="60" height="30" as="geometry" />
        </mxCell>
        <mxCell id="BM7-LysXDaabkNMuNMAa-104" value="Rainy" style="text;html=1;align=center;verticalAlign=middle;resizable=0;points=[];autosize=1;strokeColor=none;fillColor=none;" vertex="1" parent="WIyWlLk6GJQsqaUBKTNV-1">
          <mxGeometry x="265" y="-741" width="50" height="30" as="geometry" />
        </mxCell>
        <mxCell id="BM7-LysXDaabkNMuNMAa-105" value="Snowy" style="text;html=1;align=center;verticalAlign=middle;resizable=0;points=[];autosize=1;strokeColor=none;fillColor=none;" vertex="1" parent="WIyWlLk6GJQsqaUBKTNV-1">
          <mxGeometry x="490" y="-741" width="60" height="30" as="geometry" />
        </mxCell>
        <mxCell id="BM7-LysXDaabkNMuNMAa-106" value="Windy" style="text;html=1;align=center;verticalAlign=middle;resizable=0;points=[];autosize=1;strokeColor=none;fillColor=none;" vertex="1" parent="WIyWlLk6GJQsqaUBKTNV-1">
          <mxGeometry x="590" y="-761" width="60" height="30" as="geometry" />
        </mxCell>
        <mxCell id="BM7-LysXDaabkNMuNMAa-112" style="edgeStyle=orthogonalEdgeStyle;rounded=0;orthogonalLoop=1;jettySize=auto;html=1;exitX=0.5;exitY=1;exitDx=0;exitDy=0;entryX=0.5;entryY=0;entryDx=0;entryDy=0;" edge="1" parent="WIyWlLk6GJQsqaUBKTNV-1" source="BM7-LysXDaabkNMuNMAa-107" target="BM7-LysXDaabkNMuNMAa-111">
          <mxGeometry relative="1" as="geometry" />
        </mxCell>
        <mxCell id="BM7-LysXDaabkNMuNMAa-107" value="Output&lt;br&gt;&quot;Which footwear?&quot;" style="shape=parallelogram;perimeter=parallelogramPerimeter;whiteSpace=wrap;html=1;fixedSize=1;" vertex="1" parent="WIyWlLk6GJQsqaUBKTNV-1">
          <mxGeometry x="330" y="-469" width="140" height="60" as="geometry" />
        </mxCell>
        <mxCell id="BM7-LysXDaabkNMuNMAa-111" value="End" style="rounded=1;whiteSpace=wrap;html=1;" vertex="1" parent="WIyWlLk6GJQsqaUBKTNV-1">
          <mxGeometry x="340" y="-370" width="120" height="40" as="geometry" />
        </mxCell>
      </root>
    </mxGraphModel>
  </diagram>
</mxfile>
